<?xml version="1.0" encoding="utf-8"?>
<!-- Generator: Adobe Illustrator 19.0.0, SVG Export Plug-In . SVG Version: 6.00 Build 0)  -->
<svg version="1.1" id="Layer_1" xmlns="http://www.w3.org/2000/svg" xmlns:xlink="http://www.w3.org/1999/xlink" x="0px" y="0px"
	 viewBox="0 0 835 119.5" style="enable-background:new 0 0 835 119.5;" xml:space="preserve">
<style type="text/css">
	.st0{fill:none;stroke:#FF2442;stroke-miterlimit:10;}
</style>
<g id="XMLID_28_">
	<line id="XMLID_1_" class="st0" x1="788.5" y1="0" x2="1219.6" y2="119"/>
	<line id="XMLID_2_" class="st0" x1="747.1" y1="0" x2="1130.2" y2="119"/>
	<line id="XMLID_3_" class="st0" x1="705.6" y1="0" x2="1040.8" y2="119"/>
	<line id="XMLID_4_" class="st0" x1="664.2" y1="0" x2="951.4" y2="119"/>
	<line id="XMLID_5_" class="st0" x1="622.8" y1="0" x2="862" y2="119"/>
	<line id="XMLID_6_" class="st0" x1="581.3" y1="0" x2="772.6" y2="119"/>
	<line id="XMLID_7_" class="st0" x1="539.9" y1="0" x2="683.2" y2="119"/>
	<line id="XMLID_8_" class="st0" x1="498.4" y1="0" x2="593.9" y2="119"/>
	<line id="XMLID_9_" class="st0" x1="457" y1="0" x2="504.5" y2="119"/>
	<line id="XMLID_10_" class="st0" x1="415.6" y1="0" x2="415.1" y2="119"/>
	<line id="XMLID_11_" class="st0" x1="374.1" y1="0" x2="325.7" y2="119"/>
	<line id="XMLID_12_" class="st0" x1="332.7" y1="0" x2="236.3" y2="119"/>
	<line id="XMLID_13_" class="st0" x1="291.2" y1="0" x2="146.9" y2="119"/>
	<line id="XMLID_14_" class="st0" x1="249.8" y1="0" x2="57.5" y2="119"/>
	<line id="XMLID_15_" class="st0" x1="208.4" y1="0" x2="-31.9" y2="119"/>
	<line id="XMLID_16_" class="st0" x1="166.9" y1="0" x2="-121.3" y2="119"/>
	<line id="XMLID_17_" class="st0" x1="125.5" y1="0" x2="-210.7" y2="119"/>
	<line id="XMLID_18_" class="st0" x1="84" y1="0" x2="-300.1" y2="119"/>
	<line id="XMLID_19_" class="st0" x1="42.6" y1="0" x2="-389.5" y2="119"/>
	<line id="XMLID_20_" class="st0" x1="830" y1="0" x2="1309" y2="119"/>
	<line id="XMLID_21_" class="st0" x1="2" y1="0" x2="-477" y2="119"/>
	<line id="XMLID_22_" class="st0" x1="-48" y1="12.5" x2="880" y2="12.5"/>
	<line id="XMLID_23_" class="st0" x1="-113" y1="28.5" x2="945" y2="28.5"/>
	<line id="XMLID_24_" class="st0" x1="-196" y1="48.5" x2="1028" y2="48.5"/>
	<line id="XMLID_25_" class="st0" x1="-312" y1="77.5" x2="1144" y2="77.5"/>
	<line id="XMLID_26_" class="st0" x1="2" y1="0.5" x2="830" y2="0.5"/>
	<line id="XMLID_27_" class="st0" x1="-480" y1="119.5" x2="1312" y2="119.5"/>
	<line id="XMLID_32_" class="st0" x1="-13" y1="3.5" x2="845" y2="3.5"/>
	<line id="XMLID_31_" class="st0" x1="-31" y1="7.5" x2="863" y2="7.5"/>
	<line id="XMLID_30_" class="st0" x1="-48" y1="12.5" x2="880" y2="12.5"/>
	<line id="XMLID_29_" class="st0" x1="-68" y1="16.5" x2="900" y2="16.5"/>
	<line id="XMLID_36_" class="st0" x1="-88" y1="22.5" x2="920" y2="22.5"/>
	<line id="XMLID_35_" class="st0" x1="-113" y1="28.5" x2="945" y2="28.5"/>
	<line id="XMLID_34_" class="st0" x1="-137" y1="34.5" x2="969" y2="34.5"/>
	<line id="XMLID_33_" class="st0" x1="-164" y1="41.5" x2="996" y2="41.5"/>
	<line id="XMLID_40_" class="st0" x1="-196" y1="48.5" x2="1028" y2="48.5"/>
	<line id="XMLID_39_" class="st0" x1="-227" y1="57.5" x2="1061" y2="57.5"/>
	<line id="XMLID_38_" class="st0" x1="-267" y1="66.5" x2="1099" y2="66.5"/>
	<line id="XMLID_37_" class="st0" x1="-312" y1="77.5" x2="1144" y2="77.5"/>
	<line id="XMLID_44_" class="st0" x1="-358" y1="89.5" x2="1190" y2="89.5"/>
	<line id="XMLID_43_" class="st0" x1="-414" y1="103.5" x2="1246" y2="103.5"/>
	<line id="XMLID_42_" class="st0" x1="2" y1="0.5" x2="830" y2="0.5"/>
	<line id="XMLID_41_" class="st0" x1="-480" y1="119.5" x2="1312" y2="119.5"/>
</g>
</svg>
