<?xml version="1.0" encoding="utf-8"?>
<!-- Generator: Adobe Illustrator 19.0.0, SVG Export Plug-In . SVG Version: 6.00 Build 0)  -->
<svg version="1.1" id="Layer_1" xmlns="http://www.w3.org/2000/svg" xmlns:xlink="http://www.w3.org/1999/xlink" x="0px" y="0px"
	 viewBox="0 0 891 41.2" style="enable-background:new 0 0 891 41.2;" xml:space="preserve">
<style type="text/css">
	.st0{fill:#EE3B5A;}
</style>
<g id="XMLID_3_">
	<path id="XMLID_79_" class="st0" d="M258.5,3.7C258.1,3.7,258,3.8,258.5,3.7L258.5,3.7z"/>
	<path id="XMLID_78_" class="st0" d="M555.7,5.5c0.1,0,0.2,0,0.3,0c0.2-0.2,0.5-0.4,0.7-0.5L555.7,5.5z"/>
	<path id="XMLID_77_" class="st0" d="M603.2,8.6c0.1,0,0.2,0,0.3,0.1C603.5,8.6,603.5,8.5,603.2,8.6z"/>
	<path id="XMLID_76_" class="st0" d="M445.5,4.4c-0.4,0-0.6,0-0.8,0.1C444.9,4.5,445.2,4.4,445.5,4.4z"/>
	<path id="XMLID_75_" class="st0" d="M171.1,6.7c0,0,0.1,0,0.2,0c-0.2,0-0.4-0.1-0.5-0.1L171.1,6.7z"/>
	<path id="XMLID_74_" class="st0" d="M172,6.3c1.1,0.1-0.3,0.3-0.7,0.3c1.2,0.2,2.4,0.2,3.5,0.1C174.8,6.4,172.5,6.5,172,6.3z"/>
	<path id="XMLID_73_" class="st0" d="M13.2,22.5l0.4-0.2C13.4,22.4,13.3,22.4,13.2,22.5z"/>
	<path id="XMLID_72_" class="st0" d="M449,19.7c-0.2,0-0.5,0-0.7,0.1C448.7,19.7,448.9,19.7,449,19.7z"/>
	<path id="XMLID_71_" class="st0" d="M37.7,18.5l0-0.5C37.5,18.2,37.6,18.4,37.7,18.5z"/>
	<path id="XMLID_70_" class="st0" d="M556.7,5l0.4-0.2C556.9,4.9,556.8,4.9,556.7,5z"/>
	<path id="XMLID_69_" class="st0" d="M647.1,11c0,0.2,0.1,0.3,0.2,0.4c0.1,0,0.1,0,0.1,0L647.1,11z"/>
	<path id="XMLID_68_" class="st0" d="M864.4,33.9c0-0.1,0-0.1,0-0.2l-1,0.3C863.9,33.9,864.2,33.9,864.4,33.9z"/>
	<path id="XMLID_67_" class="st0" d="M706.7,16.5c0.1-0.1,0.2-0.1,0.2-0.2c-1-0.2-3.7-0.4-7.2-0.6l-0.4,0.6L706.7,16.5z"/>
	<path id="XMLID_63_" class="st0" d="M767.9,34.7L762,33c20.4,1,29.5,2.8,47.2,3.2l-1,0.2c2.4,0.5,4.8-2.1,31.5,3.4l0,0.1
		c1,0.1,1.1-0.2,2.9,0.3l-4.5-1.1c3-0.1,5.7-0.4,9.6-0.2c0.8,0.2,1,0.5,1,0.7l9.5,0.6l2.6,1c3-0.2,2.3-1.9,9.7-0.3
		c-2.5-1.4,4.1-0.3,3.3-1c0.3,0.2,1.1,0.5,1.8,0.7c4.6,0.3,13.4,0.7,15.7,0.3c0,0-17-3.9-21.4-5.6c6.3,0.9,1.8,0,0.6-0.5l-0.5,0.2
		c-3.8-0.6-3.5-1.3-5.4-1.7c0,0.1,0,0.1,0,0.2l0.3-0.1c0.1,0.1,0,0.2-0.2,0.3c0,0.2-0.2,0.3-1.3,0.1l0.2-0.1c-1.7,0-4.4-0.4-5.6-0.6
		l0.2-0.6c-3.3,0.8-18.7-3.4-22.6-3.7c-3.6-1.1-8.8-0.5-13.5-1.3c-7.7-0.8-3.6-1.2-7.3-2c-4.7-0.8,0.7,0.8-1.2,0.7l-5.5-1.3
		c3.4,0.2,1.7-0.3,1.1-0.6c-5-0.5-12.6-2.2-14.6-1.1c-6.6-1.1-6.5-1.6-9.4-1.8c0.9,0.3,2.8,0.6,2.7,0.9c-2.6-0.7-1.3,0-0.3,0.2
		c-4.3,0.2-20.9-3.8-22.2-2.5l0.1-0.2c-1.3,0.9,0,2-3.1,2.3l-1.8-0.6l-3,0.2c-1.9-0.4-0.8-0.6-0.8-0.8c-4.9,0.1-11.4-0.8-17.1-1.4
		l5.3,3.1c-4.7-0.9-13.1-2.8-14.3-2l-2.7-1.1c-9.3-2.4-7,0.3-10.8-0.5l-4.7-1.3l4.9,0.3c-4.8-0.8-6.6-1.2-10.4-2.1c0,0,0,0,0,0
		c0.3,0.1,0.4,0.1,0.4,0.2l-0.7,0c-0.7,0.5-3.4,0.6-6.8,0.4c-4.9-0.4-8.9,0.1-16.4-1.4l-2.2,0.9l-5.7-0.9l0.2-0.8
		c5.7,0.4,16.6,0.7,24,1.1l0.2-0.4c-4.4-0.3-9.5-0.2-12.3-0.5c-1.4-0.2-4.8-1.3-2-1.7l-2.9,0.6c-14.7-0.7-14.8-0.7-29.9-2.4l1.2,0.5
		c-3.1,0.1-6.2,0.1-6.9-0.5c-4.6-0.3-9.2-0.7-13.5-1.2c-4.2-0.5-8-1-10.9-1.7l-1.5,0.9c-1.9-0.1-4.6-1.7-5.8-0.4l-4.2,0.2
		c-2.6-0.2-4.4,0.3-7.3-0.4l0,0l0,0c-0.2,0-0.4-0.1-0.6-0.1c0,0,0,0.1,0,0.1c-5.9-0.7-0.1,0.8-6.9,0c-2.1-0.8-2.7,1.1-6,0.7L587.5,8
		c-6-1-7.2,0.3-16.1,0c-4.2-0.6-6-1.9-3-2.8c-4.1,1.1-1.9,0.7-7.1,1.1c-0.7-0.5-0.1-0.6,1.1-1c-4.5-0.8-2.9,0.4-6.3,0.2
		c-1.1,0.9-2.5,2.4-3.6,2.4l1.3,0.3c-3.7,0.4-7.7,0.5-11.8-0.1l0.2-0.5l-4.5,0.1l-0.2-0.6l-6.4,0l0.9,0.2c-1.5,0-6.5,0.1-9.3-0.3
		l0.1-0.3c-7.8-1.3-14.6-0.1-24-0.3l1.3-0.7c-3.1-0.8-1,1.1-4.8,0.6l-0.1-0.9c-3.5,1.1-4.3-0.3-6.6-0.8l1,1.2l-4.3-0.3
		c-4.7-0.5-2.8-1.5-2-2.1l-3.3,0.8l-0.5-1c-2.5,1.1-2.4-0.2-6.6,0.3c-0.3-0.4,0.8-0.6-0.6-0.8L465,4l4.2-0.5l-0.6,1.4
		c-4.4,1-5.8-0.3-9,0l2.2-0.4c-5.1,0.2-5.3-0.4-8.1-0.7c0.9,0.3,2.2,0.7,0.1,0.9c-1.5,0.1-0.8-0.5-2.2-0.7c-0.4,1-4.1,1.4-7.3,0.9
		c0.1-0.1,0.1-0.3,0.4-0.4c-0.8,0.1-1.3,0.4-2.7,0.1l0.9-1.1l-2.9,1c-1.8-0.3-4.6,0.4-4.3-0.3l1.1-0.2l-14.1-0.5l-0.1-0.9
		c-1.5,1.2-7.7-0.6-7.3,0.9c-2.6-0.8-10.5,0.5-8.9-1.2c-9.3-0.2-14.4,1.4-25.7,0.4c-2-0.7-5.8-1-9.9-1.1c-4.2-0.1-8.7,0-12.4-0.1
		c-14.2,0.6-23.4,1-37.9,1.6c-8.8-1.9-21.7,0.8-31.1-0.2l-2.5,0.8c-6.3-1.2-15.7,0.5-24.5-0.6c-2.1,0.4-3.2,0.5-3.7,0.5
		c0.4,0,1,0.2,1.2,0.7c-2.5-0.3-7.5,0.2-7.2-0.8l0.6-0.1c0.3-1-7.5,0.6-10.4-0.3l1.6,1l-4.7-0.1l1.3-0.2c-20.3,2.8-29.9-0.4-49,2.2
		c2.4-1.2-3.7,0.7-4.1-0.6c-5.1-1.5-9,0.6-12.9,1.1c0,0.1,0,0.1-0.2,0.2l-7,0.1c3.9-1.8-4.8,1.5-1.2,0c-18.4-0.6-42.1,1.7-63.5,2.7
		l1.1,0.3c-5.4,0.3-11.9,1.3-16.2,1.1c-4.3-0.3-8.5,1.8-10,2.1c-4.1,1.2-8.8,0.2-6.8,0.1c-4.7,0.7-8.4,2.7-15.2,2.8
		c-1.5-0.5-5.7,0.4-9.7,1.3c-4,0.9-7.6,1.8-8.2,1.1l0,0.1c-2.2,0.1-4.3,0.3-6.4,0.6c-2,0.4-3.9,0.8-5.9,1.2c-1.9,0.5-3.9,0.9-6,1.3
		c-2,0.4-4.2,0.8-6.5,1c0,0,0.1-0.1,0.3-0.3c0,0-0.9,0.5-2.2,1.2c-0.6,0.4-1.4,0.8-2.2,1.2c-0.8,0.5-1.6,1-2.4,1.5
		c-3.2,2-6.4,4-6.4,4s2.3,0.9,4.7,1.8C7,33.1,9.3,34,9.3,34s4.4,0.2,8.7,0.4c4.3,0.3,8.7,0.5,8.7,0.5s0.6-0.1,1.6-0.4
		c1-0.2,2.5-0.5,4.2-0.9C36,33,40.7,32,45.6,31.2c2.4-0.4,4.8-0.9,7.1-1.3c2.3-0.4,4.4-0.7,6.3-1c1.8-0.3,3.4-0.5,4.5-0.7
		c1.1-0.2,1.7-0.2,1.7-0.2s2.1-0.1,5.1-0.3c1.5-0.1,3.3-0.2,5.3-0.3c1.9-0.1,4-0.2,6.1-0.3c4.1-0.2,8.3-0.4,11.4-0.5
		c3.1-0.1,5.2-0.2,5.2-0.2s1.2-0.1,3.4-0.3c2.2-0.2,5.3-0.4,9-0.8c3.8-0.3,8.2-0.6,12.9-0.9c4.8-0.3,9.8-0.6,14.9-0.9
		c20.3-1.2,41-1.9,41-1.9l5.8-1.3c8.3,0.8,17.6,0.5,27.1,0.2c9.5-0.4,19.1-0.8,28-0.2l0.3-1c5-0.1,4.7,0.5,5.9,0.7
		c46.2-1,94-2.4,135.7-0.9c4,0.7,16.2,0.4,19.4,1.1c13.6-1.1,27.9-0.8,41.5-0.5l-0.5,0.1l6.4-0.1c0.3,0.1,0.3,0.2,0.1,0.3
		c7.3-0.8,18.5,0.4,27.3,0.9l-0.5,0.1c25.7,0.6,50.5,1,75.2,1.6c12.4,0.3,24.7,0.7,37.1,1.2c12.4,0.6,24.9,1.3,37.5,2.2
		c23.2,2.8,51.2,2,77.9,5c1.2,0.3,5.5,0.7,11.4,1.1c5.9,0.4,13.3,0.9,20.7,1.4C750.5,34,765.5,34.7,767.9,34.7z"/>
	<path id="XMLID_61_" class="st0" d="M848.4,39.6l-0.2,0C848.1,40,848.4,39.9,848.4,39.6z"/>
	<path id="XMLID_60_" class="st0" d="M739.2,19.8c0.1,0,0.2,0,0.4,0l-1.2-0.7L739.2,19.8z"/>
	<path id="XMLID_33_" class="st0" d="M812,24.6c-3.2-0.4-3.4-0.3-3-0.1C810.2,24.7,811.2,24.7,812,24.6z"/>
	<path id="XMLID_32_" class="st0" d="M875.1,41.1c1.7,0.2,1.1-0.1,0.2-0.5c-1.7-0.1-3-0.2-3-0.2C873.2,40.6,874.1,40.9,875.1,41.1z"
		/>
	<path id="XMLID_31_" class="st0" d="M870.3,34.9l0.7-0.3C869.9,34.6,869.9,34.7,870.3,34.9z"/>
</g>
</svg>
