<?xml version="1.0" encoding="utf-8"?>
<!-- Generator: Adobe Illustrator 19.0.0, SVG Export Plug-In . SVG Version: 6.00 Build 0)  -->
<svg version="1.1" id="Layer_1" xmlns="http://www.w3.org/2000/svg" xmlns:xlink="http://www.w3.org/1999/xlink" x="0px" y="0px"
	 viewBox="0 0 400 400" style="enable-background:new 0 0 400 400;" xml:space="preserve">
<style type="text/css">
	.st0{fill:#EA7C00;}
	.st1{fill:#FAC000;}
	.st2{fill:#ED5831;}
	.st3{fill:#F7AA00;}
	.st4{fill:#E44341;}
	.st5{fill:#F49100;}
</style>
<g id="XMLID_6_">
	<path id="XMLID_9_" class="st0" d="M40.6,321c2.6,3,5.3,6,8.1,10h303.1c2.8-4,5.5-7,8.1-10H40.6z"/>
	<path id="XMLID_10_" class="st1" d="M394.3,248c3.8-15,5.9-31.5,5.9-48.2c0-110.5-89.5-199.9-200-199.9S0.2,89.3,0.2,199.8
		c0,16.7,2.1,33.2,5.9,48.2H394.3z"/>
	<path id="XMLID_11_" class="st2" d="M322.9,358c4.1-3,8.1-7,11.9-10H65.6c3.8,3,7.8,7,11.9,10H322.9z"/>
	<path id="XMLID_12_" class="st3" d="M11.2,266c1.2,3,2.4,6,3.8,10h370.3c1.3-4,2.6-7,3.8-10H11.2z"/>
	<path id="XMLID_13_" class="st4" d="M103.9,375c28.6,16,61.4,24.7,96.3,24.7s67.7-8.7,96.3-24.7H103.9z"/>
	<path id="XMLID_14_" class="st5" d="M23.1,293c1.8,4,3.7,7,5.6,10h342.8c2-3,3.8-6,5.6-10H23.1z"/>
</g>
</svg>
